<?xml version="1.0" encoding="utf-8"?>
<!-- Generator: Adobe Illustrator 24.2.0, SVG Export Plug-In . SVG Version: 6.00 Build 0)  -->
<svg version="1.1" xmlns="http://www.w3.org/2000/svg" xmlns:xlink="http://www.w3.org/1999/xlink" x="0px" y="0px"
	 viewBox="0 0 800 623" style="enable-background:new 0 0 800 623;" xml:space="preserve">
<style type="text/css">
	.st0{fill:#231F20;}
	.st1{display:none;}
	.st2{fill:#C1C1C1;}
	.st3{fill:#231F20;stroke:#FFFFFF;stroke-width:13;stroke-miterlimit:10;}
	.st4{fill:none;stroke:#FFFFFF;stroke-width:10.9658;stroke-miterlimit:10;}
	.st5{fill:none;stroke:#FFFFFF;stroke-width:10;stroke-miterlimit:10;}
	.st6{fill:#FFFFFF;stroke:#FFFFFF;stroke-width:13;stroke-miterlimit:10;}
	.st7{fill:#6D626D;stroke:#FFFFFF;stroke-miterlimit:10;}
	.st8{fill:#676463;}
	.st9{fill:#FFFFFF;}
</style>
<g id="Layer_3">
</g>
<g id="Layer_5">
	<rect y="-77" class="st0" width="800" height="1200"/>
</g>
<g id="Layer_1" class="st1">
	
		<image style="display:inline;overflow:visible;" width="1974" height="1128" xlink:href="C6FF5D03DB3F804A.png"  transform="matrix(0.5 0 0 0.5 178 103)">
	</image>
</g>
<g id="Layer_2">
</g>
<g id="Layer_4">
	<polygon class="st2" points="377.5,474.8 382,480.6 388.9,487.4 394.6,492 401.4,495.4 407.2,497.7 412.9,497.7 417.4,497.7 
		423.1,495.4 427.7,492 432.3,488.5 438,481.7 443.7,474.8 442.6,473.7 440.3,472.6 432.3,470.3 423.1,468 412.9,468 407.2,468 
		401.4,468 394.6,469.1 384.3,472.6 	"/>
	<ellipse class="st3" cx="399.1" cy="372.5" rx="207" ry="172"/>
	<polyline class="st4" points="263.5,242.5 230.6,93.4 306.3,225.6 	"/>
	<polygon class="st2" points="377.5,475.8 382,481.6 388.9,488.4 394.6,493 401.4,496.4 407.2,498.7 412.9,498.7 417.4,498.7 
		423.1,496.4 427.7,493 432.3,489.5 438,482.7 443.7,475.8 442.6,474.7 440.3,473.6 432.3,471.3 423.1,469 412.9,469 407.2,469 
		401.4,469 394.6,470.1 384.3,473.6 	"/>
	<polyline class="st4" points="520.6,236.1 553.5,87 477.8,219.1 	"/>
	<path class="st5" d="M411.1,403.5c-27.9,0-63,11-63,11c33.2,80.9,77.5,139.8,121.9,0.4C470,414.9,452.1,403.5,411.1,403.5z"/>
	<path class="st5" d="M377.7,474.7c0,0,19.2-7.3,31.8-7.3c12.6,0,23.5,1.4,32.6,6.1"/>
	<circle class="st6" cx="508.1" cy="337.5" r="47.5"/>
	<circle class="st7" cx="510.6" cy="339" r="34"/>
	<circle class="st8" cx="520.1" cy="344.5" r="22.5"/>
	<circle class="st9" cx="526.1" cy="347.5" r="15.5"/>
	<circle class="st9" cx="502.4" cy="329.8" r="7.8"/>
	<circle class="st6" cx="300.1" cy="337.5" r="47.5"/>
	<circle class="st7" cx="302.6" cy="339" r="34"/>
	<circle class="st8" cx="312.1" cy="344.5" r="22.5"/>
	<circle class="st9" cx="318.1" cy="347.5" r="15.5"/>
	<circle class="st9" cx="294.4" cy="329.8" r="7.8"/>
</g>
</svg>
