<?xml version="1.0" encoding="utf-8"?>
<!-- Generator: Adobe Illustrator 24.2.0, SVG Export Plug-In . SVG Version: 6.00 Build 0)  -->
<svg version="1.1" xmlns="http://www.w3.org/2000/svg" xmlns:xlink="http://www.w3.org/1999/xlink" x="0px" y="0px"
	 viewBox="0 0 800 1200" style="enable-background:new 0 0 800 1200;" xml:space="preserve">
<style type="text/css">
	.st0{fill:#231F20;}
	.st1{display:none;}
	.st2{fill:#FFFFFF;}
	.st3{fill:none;stroke:#FFFFFF;stroke-width:13;stroke-miterlimit:10;}
	.st4{fill:#C1C1C1;}
	.st5{fill:#231F20;stroke:#FFFFFF;stroke-width:13;stroke-miterlimit:10;}
	.st6{fill:none;stroke:#FFFFFF;stroke-width:10.9658;stroke-miterlimit:10;}
	.st7{fill:none;stroke:#FFFFFF;stroke-width:10;stroke-miterlimit:10;}
	.st8{fill:#FFFFFF;stroke:#FFFFFF;stroke-width:13;stroke-miterlimit:10;}
	.st9{fill:#6D626D;stroke:#FFFFFF;stroke-miterlimit:10;}
	.st10{fill:#676463;}
</style>
<g id="Layer_3">
</g>
<g id="Layer_5">
	<rect class="st0" width="800" height="1200"/>
</g>
<g id="Layer_1" class="st1">
	
		<image style="display:inline;overflow:visible;" width="1974" height="1128" xlink:href="68C93E209AD519B.png"  transform="matrix(0.5 0 0 0.5 178 180)">
	</image>
</g>
<g id="Layer_2">
	<g>
		<path class="st2" d="M242.1,1059.4c-0.6,2.4-1.2,6.2-1.7,9l-1.6,0.1c0-0.8,0-2-0.2-2.9c-0.3-2.3-0.9-3.1-5.6-3.1h-3.2L225,1088
			c-0.8,4.2-0.4,4.5,4.4,4.8l-0.3,1.5h-14.3l0.4-1.5c4.4-0.4,4.8-0.7,5.6-4.8l4.9-25.5h-3.1c-4.2,0-5,0.7-6,2
			c-0.7,0.9-1.6,2.3-2.3,4l-1.7-0.2c0.8-3,1.7-6.1,2.1-9h1.2c0.5,1.2,1.1,1.1,2.5,1.1h20c1.4,0,1.7-0.2,2.7-1.1H242.1z"/>
		<path class="st2" d="M239.6,1076c1.9-2.7,4.7-5.1,6.4-5.1c1.6,0,2.1,1.8,2.2,6.2c0.1,3.8,0.1,8.5,0.1,11.4
			c3.3-5.1,7.1-11,10.1-16.7h1.4c0.4,5.6,0.9,12.1,1.5,17.9c2.5-3.1,7.5-9.9,7.6-13.1c0-1.1-0.5-1.9-0.8-2.5
			c-0.2-0.4-0.3-0.7-0.2-1.1c0.4-1.1,2-2.1,3-2.1c1.3,0,2,1.2,2,3c0,1.4-0.4,2.9-1.4,4.6c-2.3,4.4-7.7,11.1-12,16.5H258
			c-0.4-4.5-0.9-11-1.4-16.2c-3.4,5.7-7.5,11.6-10.3,16.2h-1.5c0-4.2,0-11.6-0.4-17.2c-0.2-2.1-0.4-3.1-0.8-3.1
			c-0.4,0-1.4,0.7-3.1,2.5L239.6,1076z"/>
		<path class="st2" d="M296.5,1079c0,5.4-2.7,11-7.3,13.9c-1.9,1.1-4.1,2.1-6.4,2.1c-4.9,0-7-4-7-8.1c0-7.2,3.8-12.3,8.4-14.6
			c1.7-0.8,3.8-1.4,5.4-1.4C293.9,1070.9,296.5,1073.7,296.5,1079z M280.2,1086.3c0,3.9,1.5,6.5,4.3,6.5c4.9,0,7.5-8,7.5-13.6
			c0-4.3-1.9-6.1-4.4-6.1C282.5,1073.1,280.2,1080.9,280.2,1086.3z"/>
		<path class="st2" d="M351.6,1062c-4.4,0.4-4.8,0.7-5.6,5l-4.1,21c-0.8,4.3-0.5,4.5,4.1,4.9l-0.4,1.5h-13.9l0.3-1.5
			c4.5-0.4,4.7-0.7,5.6-4.9l2-10.4h-17.1l-2,10.4c-0.8,4.3-0.4,4.6,4,4.9l-0.3,1.5h-13.8l0.3-1.5c4.2-0.3,4.7-0.7,5.5-4.9l4.1-21
			c0.8-4.3,0.6-4.6-4-5l0.3-1.5h13.9l-0.3,1.5c-4.5,0.4-4.8,0.7-5.6,5l-1.6,8.5h17.1l1.6-8.5c0.8-4.3,0.6-4.6-4-5l0.4-1.5H352
			L351.6,1062z"/>
		<path class="st2" d="M356.9,1095c-2.5,0-5.9-1.5-5.9-7.7c0-4.8,2.1-10.6,6.2-13.6c2.3-1.7,4.8-2.7,7-2.7c3,0,4.6,1.9,4.6,4.2
			c0,5.2-7.6,7.6-13.5,8.7c-0.1,0.6-0.1,1.7-0.1,2.2c0,3,0.8,5.9,4.1,5.9c2.3,0,5.1-1.5,7.7-4.1l0.8,1.3
			C363.7,1093.9,359.5,1095,356.9,1095z M355.6,1082c7.5-1.4,9.3-3.7,9.4-6.1c0-1.8-1-2.8-2.7-2.8
			C360.7,1073.1,357.2,1074.3,355.6,1082z"/>
		<path class="st2" d="M394.4,1089.7c-2.5,3.4-5.8,5.3-7.2,5.3s-2.1-1.2-1.1-5.9l0.7-3.6c-1.9,3.2-4.7,5.8-6.2,7
			c-1.7,1.4-3.6,2.5-5.4,2.5c-1.8,0-3.3-2.2-3.3-6.4c0-4.9,2.2-10.3,5.8-13.5c2.7-2.5,6.4-4.1,9.9-4.1c2.7,0,5,0.8,6,0.9
			c-0.9,3.3-2.8,11.3-3.7,17.2c-0.3,1.5-0.2,2,0.3,2c0.6,0,1.7-0.7,3.6-2.6L394.4,1089.7z M385,1085.3c1.1-1.5,2.5-4.1,3-6.2
			c0.5-2,1-3.8,1.1-5.1c-0.7-0.4-2.4-0.8-4-0.8c-6.1,0-9,7.9-9,14.7c0,2.1,0.6,3.4,1.6,3.4C379.4,1091.3,381.7,1089.7,385,1085.3z"
			/>
		<path class="st2" d="M421.4,1089.8c-2.5,3.3-5.8,5.2-7.3,5.2c-1.5,0-2.2-1.2-1.1-6.2l0.6-2.9c-3,4.4-7.9,9.1-11.6,9.1
			c-2,0-4-1.8-4-6.7c0-4.6,2.1-10.3,6.1-13.7c2.2-2,6.3-3.7,8.7-3.7c1.2,0,2.8,0.2,3.8,0.7l1.8-8.9c0.4-2.1,0.1-2.3-1.9-2.4
			c-0.5-0.1-1.6-0.1-2-0.1l0.3-1.4c2.4-0.3,5-0.8,6.6-1.4c0.8-0.2,1.2-0.4,1.5-0.4c0.4,0,0.5,0.5,0.3,1.6
			c-2.4,10.2-4.8,21.1-6.6,30.7c-0.3,1.4-0.1,2,0.3,2c0.6,0,1.9-0.8,3.8-2.8L421.4,1089.8z M412.5,1084.8c1-1.5,1.9-3,2.4-5.5l1-4.5
			c-0.7-0.8-2.5-1.6-5-1.6c-6,0-8.5,8.6-8.5,13.9c0,2.9,0.8,4.4,2.2,4.4C406.8,1091.6,409.8,1088.7,412.5,1084.8z"/>
		<path class="st2" d="M431.4,1095c-2.5,0-5.9-1.5-5.9-7.7c0-4.8,2.1-10.6,6.2-13.6c2.3-1.7,4.8-2.7,7-2.7c3,0,4.6,1.9,4.6,4.2
			c0,5.2-7.6,7.6-13.5,8.7c-0.1,0.6-0.1,1.7-0.1,2.2c0,3,0.8,5.9,4.1,5.9c2.3,0,5.1-1.5,7.7-4.1l0.8,1.3
			C438.1,1093.9,434,1095,431.4,1095z M430.1,1082c7.5-1.4,9.3-3.7,9.4-6.1c0-1.8-1-2.8-2.7-2.8
			C435.2,1073.1,431.6,1074.3,430.1,1082z"/>
		<path class="st2" d="M469.8,1089.8c-2.5,3.3-5.8,5.2-7.3,5.2c-1.5,0-2.2-1.2-1.1-6.2l0.6-2.9c-3,4.4-7.9,9.1-11.6,9.1
			c-2,0-4-1.8-4-6.7c0-4.6,2.1-10.3,6.1-13.7c2.2-2,6.3-3.7,8.7-3.7c1.2,0,2.8,0.2,3.8,0.7l1.8-8.9c0.4-2.1,0.1-2.3-1.9-2.4
			c-0.5-0.1-1.6-0.1-2-0.1l0.3-1.4c2.4-0.3,5-0.8,6.6-1.4c0.8-0.2,1.2-0.4,1.5-0.4c0.4,0,0.5,0.5,0.3,1.6
			c-2.4,10.2-4.8,21.1-6.6,30.7c-0.3,1.4-0.1,2,0.3,2c0.6,0,1.9-0.8,3.8-2.8L469.8,1089.8z M460.8,1084.8c1-1.5,1.9-3,2.4-5.5l1-4.5
			c-0.7-0.8-2.5-1.6-5-1.6c-6,0-8.5,8.6-8.5,13.9c0,2.9,0.8,4.4,2.2,4.4C455.1,1091.6,458.2,1088.7,460.8,1084.8z"/>
		<path class="st2" d="M513.6,1094.3h-12.7l0.3-1.5c3.7-0.4,4.2-0.9,3.9-3.1c-0.3-2.1-0.7-4.7-1.1-7.7H493c-0.9,1.7-2.7,4.7-3.8,7
			c-1.6,3.1-0.8,3.4,3.2,3.8l-0.3,1.5h-11.9l0.4-1.5c3.3-0.4,4-0.7,6.6-5l16-27.8l1.7-0.3c2.3,15.3,3.4,22.3,4.5,28.5
			c0.6,3.6,1,4.1,4.8,4.5L513.6,1094.3z M501.7,1066.4h-0.1c-2.7,4.8-5.3,9.6-7.4,13.5h9.5L501.7,1066.4z"/>
		<path class="st2" d="M527,1089.6c-2.6,3.5-6,5.4-7.5,5.4c-1.3,0-2.1-1-1-6c1.9-8.9,3.9-18.3,5.6-26.3c0.4-2.1,0.3-2.3-1.6-2.4
			c-0.6-0.1-1.5-0.2-1.9-0.2l0.3-1.4c2.2-0.3,4.9-0.8,6.3-1.3c0.9-0.4,1.2-0.4,1.6-0.4c0.5,0,0.5,0.5,0.2,1.7
			c-2.3,10-4.9,21.8-6.6,30.5c-0.3,1.5-0.3,1.9,0.2,1.9c0.5,0,1.9-0.7,3.8-2.8L527,1089.6z"/>
		<path class="st2" d="M540.6,1089.8c-2.6,3.5-5.9,5.1-7.4,5.1c-1.4,0-1.9-1.4-0.9-5.5c0.8-3.4,2.3-9,3.3-13.2
			c0.2-1,0.2-1.5-0.2-1.5c-0.5,0-2.1,1-3.4,2.3l-0.7-1.4c2.4-2.7,6-4.9,7.6-4.9c1.3,0,1.4,1.8,0.4,5.6c-1,3.7-2.2,9-3.2,12.7
			c-0.4,1.4-0.4,2,0,2c0.5,0,1.9-0.7,3.7-2.7L540.6,1089.8z M542.1,1062.6c0,1.6-1.1,3-2.8,3c-1.3,0-2.3-0.9-2.3-2.3
			c0-1.4,1-3.1,2.9-3.1C541.3,1060.2,542.1,1061.3,542.1,1062.6z"/>
		<path class="st2" d="M551.2,1095c-2.5,0-5.9-1.5-5.9-7.7c0-4.8,2.1-10.6,6.2-13.6c2.3-1.7,4.8-2.7,7-2.7c3,0,4.6,1.9,4.6,4.2
			c0,5.2-7.6,7.6-13.5,8.7c-0.1,0.6-0.1,1.7-0.1,2.2c0,3,0.8,5.9,4.1,5.9c2.3,0,5.1-1.5,7.7-4.1l0.8,1.3
			C557.9,1093.9,553.8,1095,551.2,1095z M549.9,1082c7.5-1.4,9.3-3.7,9.4-6.1c0-1.8-1-2.8-2.7-2.8
			C555,1073.1,551.4,1074.3,549.9,1082z"/>
		<path class="st2" d="M589.8,1089.7c-2.8,3.6-5.9,5.3-7.4,5.3c-1.4,0-2.1-1.2-1.1-5.5c0.9-3.7,1.8-7.4,2.6-10.7
			c0.8-3.4,0.6-4.5-0.7-4.5c-1.7,0-5.7,2.9-9.3,8.3c-0.9,1.4-1.4,2.8-1.8,4.4c-0.5,2-1.2,4.8-1.6,7c-1.3,0.3-2.7,0.7-3.7,1l-0.4-0.4
			c1.5-5.7,3-12,4.3-17.8c0.4-1.6,0.2-2.1-0.3-2.1c-0.6,0-1.9,1.1-3.2,2.4l-0.7-1.4c2.4-3,5.1-4.9,6.8-4.9c1.5,0,1.9,1.8,0.8,6.3
			l-0.7,3.1c4.6-6,9.3-9.4,12.4-9.4c1.7,0,3.3,1.2,1.7,8.2c-0.7,2.9-1.7,6.9-2.4,10.1c-0.3,1.4-0.3,2,0.1,2c0.5,0,2-0.8,3.8-2.8
			L589.8,1089.7z"/>
	</g>
</g>
<g id="Layer_4">
	<polyline class="st3" points="263.5,665.5 230.6,460 306.3,645.7 	"/>
	<polyline class="st3" points="520.6,655.5 553.5,450.9 477.8,636.6 	"/>
	<polygon class="st4" points="377.5,551.8 382,557.6 388.9,564.4 394.6,569 401.4,572.4 407.2,574.7 412.9,574.7 417.4,574.7 
		423.1,572.4 427.7,569 432.3,565.5 438,558.7 443.7,551.8 442.6,550.7 440.3,549.6 432.3,547.3 423.1,545 412.9,545 407.2,545 
		401.4,545 394.6,546.1 384.3,549.6 	"/>
	<ellipse class="st5" cx="399.1" cy="449.5" rx="207" ry="172"/>
	<polyline class="st6" points="263.5,319.5 230.6,170.4 306.3,302.6 	"/>
	<polygon class="st4" points="377.5,552.8 382,558.6 388.9,565.4 394.6,570 401.4,573.4 407.2,575.7 412.9,575.7 417.4,575.7 
		423.1,573.4 427.7,570 432.3,566.5 438,559.7 443.7,552.8 442.6,551.7 440.3,550.6 432.3,548.3 423.1,546 412.9,546 407.2,546 
		401.4,546 394.6,547.1 384.3,550.6 	"/>
	<polyline class="st6" points="520.6,313.1 553.5,164 477.8,296.1 	"/>
	<path class="st7" d="M411.1,480.5c-27.9,0-63,11-63,11c33.2,80.9,77.5,139.8,121.9,0.4C470,491.9,452.1,480.5,411.1,480.5z"/>
	<path class="st7" d="M377.7,551.7c0,0,19.2-7.3,31.8-7.3c12.6,0,23.5,1.4,32.6,6.1"/>
	<circle class="st8" cx="508.1" cy="414.5" r="47.5"/>
	<circle class="st9" cx="510.6" cy="416" r="34"/>
	<circle class="st10" cx="520.1" cy="421.5" r="22.5"/>
	<circle class="st2" cx="526.1" cy="424.5" r="15.5"/>
	<circle class="st2" cx="502.4" cy="406.8" r="7.8"/>
	<circle class="st8" cx="300.1" cy="414.5" r="47.5"/>
	<circle class="st9" cx="302.6" cy="416" r="34"/>
	<circle class="st10" cx="312.1" cy="421.5" r="22.5"/>
	<circle class="st2" cx="318.1" cy="424.5" r="15.5"/>
	<circle class="st2" cx="294.4" cy="406.8" r="7.8"/>
	<polygon class="st4" points="377.5,895.8 382,901.6 388.9,908.4 394.6,913 401.4,916.4 407.2,918.7 412.9,918.7 417.4,918.7 
		423.1,916.4 427.7,913 432.3,909.5 438,902.7 443.7,895.8 442.6,894.7 440.3,893.6 432.3,891.3 423.1,889 412.9,889 407.2,889 
		401.4,889 394.6,890.1 384.3,893.6 	"/>
	<ellipse class="st5" cx="399.1" cy="793.5" rx="207" ry="172"/>
	<path class="st7" d="M411.1,824.5c-27.9,0-63,11-63,11c33.2,80.9,77.5,139.8,121.9,0.4C470,835.9,452.1,824.5,411.1,824.5z"/>
	<path class="st7" d="M377.7,895.7c0,0,19.2-7.3,31.8-7.3c12.6,0,23.5,1.4,32.6,6.1"/>
	<circle class="st8" cx="508.1" cy="758.5" r="47.5"/>
	<circle class="st9" cx="510.6" cy="760" r="34"/>
	<circle class="st10" cx="520.1" cy="765.5" r="22.5"/>
	<circle class="st2" cx="526.1" cy="768.5" r="15.5"/>
	<circle class="st2" cx="502.4" cy="750.8" r="7.8"/>
	<circle class="st8" cx="300.1" cy="758.5" r="47.5"/>
	<circle class="st9" cx="302.6" cy="760" r="34"/>
	<circle class="st10" cx="312.1" cy="765.5" r="22.5"/>
	<circle class="st2" cx="318.1" cy="768.5" r="15.5"/>
	<circle class="st2" cx="294.4" cy="750.8" r="7.8"/>
</g>
</svg>
